# xmcd
#
# Track frame offsets:
#	150
#	16698
#	29871
#	45744
#	61692
#	75915
#	88488
#	106611
#	118734
#	134532
#	153000
#
# Disc length: 2251 seconds
# Revision: 0
# Processed by: cddbd v1.5.2PL0 Copyright (c) Steve Scherf et al.
# Submitted via: cdrLabel 7.1
#
DISCID=8008c90b
DTITLE=Rocky Volato - The Brag and Cuss
DYEAR=1900
DGENRE=
TTITLE0=Lilly White
TTITLE1=Postcard From Kentucky
TTITLE2=Before You Were Born
TTITLE3=The Wrong Side of Reno
TTITLE4=Red Dragon Wishes
TTITLE5=The Blue Rose
TTITLE6=Your Darkest Eyes
TTITLE7=Time Is A Debt
TTITLE8=Whiskey Straight
TTITLE9=The Old Holland
TTITLE10=Silver Trees
EXTD=
EXTT0=
EXTT1=
EXTT2=
EXTT3=
EXTT4=
EXTT5=
EXTT6=
EXTT7=
EXTT8=
EXTT9=
EXTT10=
PLAYORDER=
